HIERARCHY
ROOT root
{
	OFFSET 0.000000 0.000000 0.000000
	CHANNELS 6 Xposition Yposition Zposition Zrotation Yrotation Xrotation
	JOINT lhip
	{
		OFFSET 0.058581 -0.082280 -0.017664
		CHANNELS 3 Zrotation Yrotation Xrotation
		JOINT lknee
		{
			OFFSET 0.043451 -0.386469 0.008037
			CHANNELS 3 Zrotation Yrotation Xrotation
			JOINT lankle
			{
				OFFSET -0.014790 -0.426874 -0.037428
				CHANNELS 3 Zrotation Yrotation Xrotation
				JOINT ltoe
				{
					OFFSET 0.041054 -0.060286 0.122042
					CHANNELS 3 Zrotation Yrotation Xrotation
					End Site
					{
						OFFSET 0.000000 0.000000 0.000000
					}
				}
			}
		}
	}
	JOINT rhip
	{
		OFFSET -0.060310 -0.090513 -0.013543
		CHANNELS 3 Zrotation Yrotation Xrotation
		JOINT rknee
		{
			OFFSET -0.043257 -0.383688 -0.004843
			CHANNELS 3 Zrotation Yrotation Xrotation
			JOINT rankle
			{
				OFFSET 0.019056 -0.420046 -0.034562
				CHANNELS 3 Zrotation Yrotation Xrotation
				JOINT rtoe
				{
					OFFSET -0.034840 -0.062106 0.130323
					CHANNELS 3 Zrotation Yrotation Xrotation
					End Site
					{
						OFFSET 0.000000 0.000000 0.000000
					}
				}
			}
		}
	}
	JOINT lowerback
	{
		OFFSET 0.004439 0.124404 -0.038385
		CHANNELS 3 Zrotation Yrotation Xrotation
		JOINT upperback
		{
			OFFSET 0.004488 0.137956 0.026820
			CHANNELS 3 Zrotation Yrotation Xrotation
			JOINT chest
			{
				OFFSET -0.002265 0.056032 0.002855
				CHANNELS 3 Zrotation Yrotation Xrotation
				JOINT lowerneck
				{
					OFFSET -0.013390 0.211636 -0.033468
					CHANNELS 3 Zrotation Yrotation Xrotation
					JOINT upperneck
					{
						OFFSET 0.010113 0.088937 0.050410
						CHANNELS 3 Zrotation Yrotation Xrotation
						End Site
						{
							OFFSET 0.000000 0.000000 0.000000
						}
					}
				}
				JOINT lclavicle
				{
					OFFSET 0.071702 0.114000 -0.018898
					CHANNELS 3 Zrotation Yrotation Xrotation
					JOINT lshoulder
					{
						OFFSET 0.122921 0.045205 -0.019046
						CHANNELS 3 Zrotation Yrotation Xrotation
						JOINT lelbow
						{
							OFFSET 0.255332 -0.015649 -0.022946
							CHANNELS 3 Zrotation Yrotation Xrotation
							JOINT lwrist
							{
								OFFSET 0.265709 0.012698 -0.007375
								CHANNELS 3 Zrotation Yrotation Xrotation
								End Site
								{
									OFFSET 0.000000 0.000000 0.000000
								}
							}
						}
					}
				}
				JOINT rclavicle
				{
					OFFSET -0.082954 0.112472 -0.023707
					CHANNELS 3 Zrotation Yrotation Xrotation
					JOINT rshoulder
					{
						OFFSET -0.113228 0.046853 -0.008472
						CHANNELS 3 Zrotation Yrotation Xrotation
						JOINT relbow
						{
							OFFSET -0.260127 -0.014369 -0.031269
							CHANNELS 3 Zrotation Yrotation Xrotation
							JOINT rwrist
							{
								OFFSET -0.269108 0.006794 -0.006027
								CHANNELS 3 Zrotation Yrotation Xrotation
								End Site
								{
									OFFSET 0.000000 0.000000 0.000000
								}
							}
						}
					}
				}
			}
		}
	}
}
MOTION
Frames: 5
Frame Time: 0.033333
0.128915 -1.577404 0.951810 -94.042795 -0.144609 89.906742 15.185760 7.647391 -22.479410 -1.715159 4.347170 22.026645 0.302802 9.935036 -11.174072 0.000000 -0.000000 0.000000 3.209052 -22.903266 -8.559296 9.987678 -3.870210 15.446269 -1.386156 6.822733 -22.422531 0.000000 -0.000000 0.000000 -0.994246 7.077178 10.807145 2.454405 -3.076712 -5.240623 2.928162 -1.097088 0.171007 5.640360 2.306257 -10.834175 3.419910 -9.963820 16.132953 -25.094445 -0.317021 -2.866870 -53.069426 -6.619530 3.193634 12.185611 -24.375860 0.680056 8.811422 -1.525782 -9.079584 24.612113 5.391809 -0.091597 48.356045 9.754885 4.620703 1.841288 21.756469 12.104135 -2.310305 1.931597 -9.426108 
0.128857 -1.577856 0.952080 -94.027455 -0.236204 89.834085 15.019354 7.701757 -22.295329 -1.716661 4.209582 21.803315 0.364798 9.891241 -11.077396 0.000000 -0.000000 0.000000 3.231145 -22.558730 -8.425981 9.866993 -3.576801 15.152989 -1.226810 6.359031 -22.273131 0.000000 -0.000000 0.000000 -1.170331 7.086575 10.969150 2.396229 -2.968630 -5.546618 2.949865 -1.115548 0.455723 5.358610 2.297566 -11.043871 3.264531 -9.789417 16.221751 -25.169410 -0.242677 -3.047468 -53.000158 -6.886374 3.310106 11.957902 -24.678189 0.622660 9.285750 -1.640502 -9.116271 24.869743 5.445523 -0.237339 48.281723 9.567114 4.896823 2.380420 22.600612 12.176650 -3.021485 2.090495 -9.421927 
0.129188 -1.578489 0.952032 -94.006554 -0.234074 89.895065 14.940819 7.569831 -22.331301 -1.587871 4.248551 21.687043 0.541595 9.967380 -11.080142 0.000000 -0.000000 0.000000 3.295559 -22.335325 -8.537768 9.923523 -3.507834 15.101524 -1.146078 5.893304 -22.349632 0.000000 -0.000000 0.000000 -1.265477 7.050116 10.951800 2.397766 -2.851127 -5.762233 3.026163 -1.227417 0.672744 5.356706 2.078094 -11.460219 2.948545 -9.448055 16.612396 -25.321680 -0.124412 -3.133316 -52.995518 -7.125807 3.391726 11.950890 -24.994830 0.480016 9.222754 -1.700205 -8.916768 24.773039 5.409444 -0.364995 48.212413 9.576858 5.268589 2.933082 23.341368 12.369076 -2.288669 2.143010 -9.531237 
0.129351 -1.578940 0.952083 -93.895932 -0.087477 89.882715 15.077852 7.531650 -22.400683 -1.513194 4.344740 21.713112 0.874693 9.949205 -11.072838 0.000000 -0.000000 0.000000 3.452116 -22.232352 -8.546156 9.885017 -3.468832 15.067909 -1.216648 5.784189 -22.155079 0.000000 -0.000000 0.000000 -1.319373 7.008810 11.035807 2.335757 -2.770062 -5.983019 3.111923 -1.263529 0.767631 5.126523 1.967824 -11.149264 3.201001 -9.029715 16.363707 -25.246725 -0.270826 -3.043250 -53.109900 -7.254422 3.278585 12.049846 -25.475518 0.550858 8.911179 -1.647047 -9.004623 24.450758 5.466238 -0.483526 48.622361 9.538476 5.276522 3.191606 23.949847 12.785963 -2.140733 2.159444 -9.630548 
0.129383 -1.579308 0.952133 -93.863120 -0.052903 89.851264 15.073311 7.519354 -22.423116 -1.484479 4.339116 21.788634 0.795504 9.944679 -11.093267 0.000000 -0.000000 0.000000 3.458298 -22.204988 -8.526758 9.869321 -3.508871 15.079968 -1.181241 5.690172 -22.195508 0.000000 -0.000000 0.000000 -1.340327 6.960669 10.981561 2.361228 -2.810447 -5.851154 3.133295 -1.176539 0.745101 5.022459 1.974939 -11.043532 3.284812 -8.954376 16.246584 -25.260869 -0.400968 -3.071852 -53.125735 -7.227542 3.258704 12.087817 -25.538058 0.504868 8.965196 -1.647770 -8.930394 24.445707 5.581723 -0.410248 48.463610 9.433114 5.162682 3.289798 24.364110 12.963175 -1.969939 1.975571 -9.681254 
